<svg xmlns:dc="http://purl.org/dc/elements/1.1/" xmlns:cc="http://creativecommons.org/ns#" xmlns:rdf="http://www.w3.org/1999/02/22-rdf-syntax-ns#" xmlns:svg="http://www.w3.org/2000/svg" xmlns="http://www.w3.org/2000/svg" xmlns:sodipodi="http://sodipodi.sourceforge.net/DTD/sodipodi-0.dtd" xmlns:inkscape="http://www.inkscape.org/namespaces/inkscape" width="182.87923" height="58.467979" viewBox="0 0 48.386794 15.469653" version="1.1" id="svg4391" inkscape:version="0.92.0 r15299" sodipodi:docname="care quality comission.svg">
  <defs id="defs4385">
    <clipPath id="clipPath4094" clipPathUnits="userSpaceOnUse">
      <path inkscape:connector-curvature="0" id="path4092" d="M 0,0 H 419.528 V 595.276 H 0 Z"/>
    </clipPath>
  </defs>
  <sodipodi:namedview id="base" pagecolor="#ffffff" bordercolor="#666666" borderopacity="1.0" inkscape:pageopacity="0.0" inkscape:pageshadow="2" inkscape:zoom="4.9318381" inkscape:cx="90.939724" inkscape:cy="28.733972" inkscape:document-units="mm" inkscape:current-layer="layer1" showgrid="false" fit-margin-top="0" fit-margin-left="0" fit-margin-right="0" fit-margin-bottom="0" units="px" inkscape:window-width="1280" inkscape:window-height="744" inkscape:window-x="-4" inkscape:window-y="-4" inkscape:window-maximized="1"/>
  <metadata id="metadata4388">
    <rdf:RDF>
      <cc:Work rdf:about="">
        <dc:format>image/svg+xml</dc:format>
        <dc:type rdf:resource="http://purl.org/dc/dcmitype/StillImage"/>
        <dc:title/>
      </cc:Work>
    </rdf:RDF>
  </metadata>
  <g inkscape:label="Layer 1" inkscape:groupmode="layer" id="layer1" transform="translate(-81.772198,-140.96621)">
    <g id="g4446" transform="translate(0.1322917,-0.13228886)">
      <path d="m 102.37851,149.77645 c -0.93733,0 -1.5427,0.68474 -1.5427,1.6958 0,1.01741 0.59867,1.68275 1.49649,1.68275 0.93062,0 1.53599,-0.67169 1.53599,-1.68275 0,-1.03046 -0.59161,-1.6958 -1.48978,-1.6958 m -0.0134,2.90618 c -0.55103,0 -0.96414,-0.49177 -0.96414,-1.23013 0,-0.72461 0.36583,-1.21003 0.94439,-1.21003 0.5521,0 0.9585,0.49847 0.9585,1.23684 0,0.73166 -0.33973,1.20332 -0.93875,1.20332 m 19.5252,-4.03613 c -0.19297,0 -0.34537,0.15346 -0.34537,0.34643 0,0.19262 0.1524,0.34572 0.34537,0.34572 0.19226,0 0.34572,-0.1531 0.34572,-0.34572 0,-0.19297 -0.15346,-0.34643 -0.34572,-0.34643 m -22.643045,3.98992 c -0.978253,0 -1.590323,-0.7052 -1.590323,-1.78894 0,-1.11089 0.732014,-1.76918 1.636536,-1.76918 0.625475,0 1.017762,0.26564 1.071032,0.29916 l 0.25929,-0.41169 c -0.0533,-0.054 -0.48542,-0.4124 -1.36313,-0.4124 -1.223786,0 -2.215444,0.86395 -2.215444,2.34738 0,1.42911 0.938036,2.26731 2.128661,2.26731 0.898173,0 1.443213,-0.41205 1.489783,-0.46497 l -0.25894,-0.41239 c -0.0469,0.0265 -0.519291,0.34572 -1.157465,0.34572 m 25.077565,-2.85997 c -0.93769,0 -1.5427,0.68474 -1.5427,1.6958 0,1.01741 0.59831,1.68275 1.49648,1.68275 0.93098,0 1.53564,-0.67169 1.53564,-1.68275 0,-1.03046 -0.5909,-1.6958 -1.48942,-1.6958 m -0.0134,2.90618 c -0.5521,0 -0.96379,-0.49177 -0.96379,-1.23013 0,-0.72461 0.36548,-1.21003 0.94439,-1.21003 0.55139,0 0.95779,0.49847 0.95779,1.23684 0,0.73166 -0.33973,1.20332 -0.93839,1.20332 m 3.60539,-2.90618 c -0.54575,0 -0.95109,0.29316 -1.00507,0.32632 v -0.23954 h -0.50447 v 3.21839 h 0.56445 v -2.54635 c 0.0268,-0.0205 0.4325,-0.2801 0.84525,-0.2801 0.19897,0 0.36513,0.0737 0.45191,0.15981 0.16581,0.16651 0.17321,0.4325 0.17321,0.83784 v 1.8288 h 0.56445 v -1.86831 c 0,-0.51858 -0.013,-0.8516 -0.31891,-1.15746 -0.0995,-0.0995 -0.32597,-0.2794 -0.77082,-0.2794 m -20.15208,0 c -0.48507,0 -0.85125,0.20602 -1.11689,0.37253 -0.14676,-0.19967 -0.38665,-0.37253 -0.79164,-0.37253 -0.50553,0 -0.94438,0.29916 -0.98425,0.32632 v -0.23954 h -0.50588 v 3.21839 h 0.5655 v -2.5601 c 0.0466,-0.0261 0.4318,-0.26635 0.8248,-0.26635 0.19226,0 0.33267,0.0603 0.41874,0.14675 0.16652,0.17287 0.16017,0.46532 0.16017,0.89747 v 1.78223 h 0.5588 v -1.80198 c 0,-0.25965 0,-0.61172 -0.054,-0.75177 0.0734,-0.0462 0.45896,-0.2727 0.85125,-0.2727 0.19297,0 0.33973,0.0536 0.43921,0.16686 0.16651,0.17921 0.16016,0.57821 0.16016,0.77788 v 1.88171 h 0.56515 v -1.86831 c 0,-0.51858 -0.0134,-0.8516 -0.31997,-1.15746 -0.0995,-0.0995 -0.32596,-0.2794 -0.77117,-0.2794 m 6.90915,3.30517 h 0.56515 v -3.21874 h -0.56515 z m 0.2794,-4.43512 c -0.19297,0 -0.34642,0.15346 -0.34642,0.34643 0,0.19262 0.15345,0.34572 0.34642,0.34572 0.19227,0 0.34537,-0.1531 0.34537,-0.34572 0,-0.19297 -0.1531,-0.34643 -0.34537,-0.34643 m -2.08244,1.12995 c -0.48472,0 -0.8509,0.20602 -1.11725,0.37253 -0.1457,-0.19967 -0.38523,-0.37253 -0.79058,-0.37253 -0.50588,0 -0.94509,0.29916 -0.98495,0.32632 v -0.23954 h -0.50553 v 3.21839 h 0.5655 v -2.5601 c 0.0469,-0.0261 0.43251,-0.26635 0.82444,-0.26635 0.19332,0 0.33338,0.0603 0.41946,0.14675 0.16651,0.17287 0.1598,0.46532 0.1598,0.89747 v 1.78223 h 0.5588 v -1.80198 c 0,-0.25965 0,-0.61172 -0.054,-0.75177 0.0734,-0.0462 0.45932,-0.2727 0.8516,-0.2727 0.19227,0 0.33902,0.0536 0.43921,0.16686 0.16616,0.17921 0.15911,0.57821 0.15911,0.77788 v 1.88171 h 0.5655 v -1.86831 c 0,-0.51858 -0.0134,-0.8516 -0.31927,-1.15746 -0.0995,-0.0995 -0.32561,-0.2794 -0.77187,-0.2794 m 3.67806,0.87806 c 0,-0.23953 0.19967,-0.4325 0.59161,-0.4325 0.39264,0 0.72566,0.19297 0.76517,0.21978 l 0.21237,-0.37924 c -0.0332,-0.0265 -0.39193,-0.2861 -1.01706,-0.2861 -0.65828,0 -1.1243,0.36618 -1.1243,0.91087 0,1.02447 1.58927,0.87807 1.58927,1.5367 0,0.2861 -0.272,0.47907 -0.61842,0.47907 -0.46496,0 -0.79093,-0.20602 -0.85796,-0.24623 l -0.21272,0.39228 c 0.0402,0.0335 0.46566,0.31892 1.10384,0.31892 0.63253,0 1.17792,-0.35878 1.17792,-0.9839 0,-1.02412 -1.60972,-0.91087 -1.60972,-1.52965 m 5.06236,2.42711 h 0.56515 v -3.21874 h -0.56515 z m -2.32128,-2.42711 c 0,-0.23953 0.19897,-0.4325 0.59196,-0.4325 0.39194,0 0.72461,0.19297 0.76518,0.21978 l 0.21202,-0.37924 c -0.0328,-0.0265 -0.39194,-0.2861 -1.01706,-0.2861 -0.65829,0 -1.12395,0.36618 -1.12395,0.91087 0,1.02447 1.58891,0.87807 1.58891,1.5367 0,0.2861 -0.27164,0.47907 -0.61807,0.47907 -0.46531,0 -0.79198,-0.20602 -0.85831,-0.24623 l -0.21272,0.39228 c 0.0406,0.0335 0.46567,0.31892 1.1049,0.31892 0.63077,0 1.17616,-0.35878 1.17616,-0.9839 0,-1.02412 -1.60902,-0.91087 -1.60902,-1.52965" style="fill:#596876;fill-opacity:1;fill-rule:nonzero;stroke:none;stroke-width:0.35277778" id="path4098" inkscape:connector-curvature="0"/>
      <path d="m 99.227501,147.51316 c 0.991659,0 1.563509,-0.49212 1.616429,-0.54504 l -0.3877,-0.62407 c -0.072,0.0395 -0.539048,0.36125 -1.117604,0.36125 -0.833967,0 -1.365956,-0.59761 -1.365956,-1.51095 0,-0.93239 0.617362,-1.49154 1.412523,-1.49154 0.637117,0 0.992367,0.30233 1.044577,0.33514 l 0.40111,-0.61031 c -0.0462,-0.0462 -0.49954,-0.50588 -1.484846,-0.50588 -1.307747,0 -2.306461,0.87348 -2.306461,2.33221 0,1.40547 0.952853,2.25919 2.187928,2.25919 m 1.870429,-1.07103 c 0,0.61136 0.4004,1.03822 1.04422,1.03822 0.51223,0 0.85372,-0.26282 0.91299,-0.30233 v 0.23037 h 0.76906 v -1.93817 c 0,-0.42051 0.007,-0.75529 -0.26318,-1.02482 -0.31538,-0.31503 -0.7814,-0.36089 -1.05727,-0.36089 -0.7426,0 -1.18287,0.30798 -1.22837,0.34749 l 0.29492,0.5655 c 0.0466,-0.0265 0.43391,-0.23671 0.86113,-0.23671 0.24306,0 0.38735,0.0593 0.45932,0.13123 0.0921,0.0924 0.0988,0.18415 0.0988,0.381 h -0.0921 c -0.3937,0 -1.79952,0.0198 -1.79952,1.16911 m 1.89159,0.17109 c -0.0392,0.0198 -0.25647,0.19721 -0.61771,0.19721 -0.21625,0 -0.49883,-0.0921 -0.49883,-0.42686 0,-0.40746 0.40675,-0.50589 0.97896,-0.50589 h 0.13758 z" style="fill:#596876;fill-opacity:1;fill-rule:nonzero;stroke:none;stroke-width:0.35277778" id="path4102" inkscape:connector-curvature="0"/>
      <path d="m 105.12876,145.28643 c 0.0988,-0.14429 0.36724,-0.46637 0.90629,-0.46637 0.0455,0 0.17074,0.013 0.1972,0.0197 l 0.20355,-0.67063 c -0.0194,-0.006 -0.13793,-0.0847 -0.36865,-0.0847 -0.64312,0 -1.04352,0.45261 -1.07033,0.49882 v -0.4071 h -0.75494 v 3.23215 h 0.88688 z m 2.79047,-1.20191 c -0.91898,0 -1.5501,0.73554 -1.5501,1.72755 0,0.93945 0.5588,1.68769 1.60937,1.68769 0.71649,0 1.20897,-0.33479 1.22802,-0.35419 l -0.28857,-0.56515 c -0.13829,0.0656 -0.45368,0.23001 -0.86113,0.23001 -0.64347,0 -0.84067,-0.49248 -0.82727,-0.72919 h 2.12866 c 0,-0.0455 0.0134,-0.13794 0.0134,-0.27552 0,-1.05163 -0.50694,-1.7212 -1.45239,-1.7212 m -0.69638,1.35925 c 0.0656,-0.40076 0.31468,-0.70238 0.71614,-0.70238 0.54539,0 0.61101,0.52564 0.61101,0.70238 z m 8.65858,2.05599 c 0.45931,0 0.86077,-0.29528 0.91299,-0.33479 v 0.24342 h 0.75494 v -3.23215 h -0.88618 v 2.36502 c -0.0529,0.0392 -0.31573,0.20355 -0.59831,0.20355 -0.20955,0 -0.30833,-0.0787 -0.34749,-0.11818 -0.11853,-0.11853 -0.13828,-0.32808 -0.13828,-0.74894 v -1.70145 h -0.88689 v 1.74096 c 0,0.42015 -0.0134,0.90628 0.34819,1.26788 0.21026,0.2099 0.49954,0.31468 0.84103,0.31468 m 3.97757,-0.32174 v 0.23037 h 0.76835 v -1.93816 c 0,-0.42051 0.007,-0.7553 -0.26212,-1.02482 -0.31573,-0.31503 -0.78175,-0.36089 -1.05763,-0.36089 -0.74259,0 -1.18286,0.30797 -1.22872,0.34748 l 0.29527,0.56551 c 0.0466,-0.0265 0.43357,-0.23672 0.86043,-0.23672 0.24377,0 0.38805,0.0593 0.45967,0.13123 0.0924,0.0924 0.0991,0.18415 0.0991,0.381 h -0.0921 c -0.3937,0 -1.79952,0.0198 -1.79952,1.16911 0,0.61136 0.40041,1.03822 1.04423,1.03822 0.51223,0 0.85372,-0.26281 0.91299,-0.30233 m -1.18216,-0.79445 c 0,-0.40746 0.4071,-0.50588 0.9786,-0.50588 h 0.13794 v 0.73554 c -0.0392,0.0198 -0.25647,0.1972 -0.61771,0.1972 -0.21661,0 -0.49883,-0.0921 -0.49883,-0.42686 m 3.27131,-3.73168 h -0.88689 v 4.7565 h 0.88689 z m 0.90558,1.12324 c 0.28151,0 0.50553,-0.22296 0.50553,-0.50553 0,-0.28222 -0.22402,-0.50588 -0.50553,-0.50588 -0.28258,0 -0.50659,0.22366 -0.50659,0.50588 0,0.28257 0.22401,0.50553 0.50659,0.50553 m 0.44626,0.40111 h -0.88688 v 3.23215 h 0.88688 z m 2.29341,2.58127 c -0.38841,0 -0.40817,-0.29527 -0.40817,-0.55139 v -1.29434 h 0.9204 v -0.73554 h -0.9204 v -0.89994 h -0.88582 v 0.89994 h -0.5588 v 0.73554 h 0.5588 v 1.26153 c 0,0.45332 0,0.76165 0.27587,1.03752 0.21625,0.21696 0.54469,0.28893 0.83362,0.28893 0.47942,0 0.78845,-0.19015 0.81385,-0.20991 l -0.2226,-0.61065 c -0.0589,0.0197 -0.2039,0.0783 -0.40675,0.0783 m 1.40405,1.45839 c -0.25647,0 -0.45261,-0.0917 -0.49882,-0.11113 l -0.26282,0.63006 c 0.0261,0.0134 0.33478,0.20356 0.80786,0.20356 0.53234,0 0.80715,-0.19685 0.9458,-0.33479 0.2293,-0.22966 0.37429,-0.52529 0.62406,-1.16276 l 1.28094,-3.2646 h -0.87384 l -0.80786,2.26589 -0.86748,-2.26589 h -0.93909 l 1.35325,3.23215 c -0.0526,0.14428 -0.16439,0.48577 -0.32173,0.64346 -0.10548,0.10478 -0.24306,0.16405 -0.44027,0.16405 m -12.69576,-3.0286 c 0,-1.31763 -0.84385,-2.26766 -2.14277,-2.26766 -1.27247,0 -2.14207,0.91652 -2.14207,2.26766 0,1.37548 0.85055,2.3174 2.10573,2.33892 v 3.5e-4 c 0,0 0.0497,0.001 0.054,0.001 0.60925,0.0141 1.03082,0.21837 1.29964,0.54998 0.0914,-0.06 0.75247,-0.62936 0.75247,-0.62936 0,0 -0.22895,-0.27411 -0.75882,-0.34537 0.51682,-0.40146 0.83185,-1.0675 0.83185,-1.91558 m -2.12302,1.55575 c -0.69215,0 -1.2192,-0.57291 -1.2192,-1.49578 0,-0.91651 0.46108,-1.56245 1.16699,-1.56245 0.73766,0 1.23261,0.62583 1.23261,1.49613 0,0.70555 -0.26988,1.5621 -1.1804,1.5621" style="fill:#596876;fill-opacity:1;fill-rule:nonzero;stroke:none;stroke-width:0.35277778" id="path4106" inkscape:connector-curvature="0"/>
      <path d="m 92.495937,153.58048 c 1.738489,-1.2319 2.874433,-3.2579 2.874433,-5.55096 0,-3.75496 -3.044119,-6.79873 -6.798733,-6.79873 -3.755672,0 -6.799439,3.04377 -6.799439,6.79873 0,3.75532 3.043767,6.79909 6.799439,6.79909 h 0.193322 c 1.808339,0.0307 3.051175,0.63112 3.844925,1.60725 0.2667,-0.17568 2.193572,-1.83479 2.193572,-1.83479 0,0 -0.690033,-0.83327 -2.307519,-1.02059 m -4.074583,-0.49177 c 1.724025,-0.35102 3.131608,-1.57974 3.751086,-3.20358 -0.0035,-0.002 -0.0081,-0.001 -0.0127,0.002 -0.672747,1.29787 -2.02565,2.18511 -3.588103,2.18511 -2.233789,0 -4.043539,-1.81011 -4.043539,-4.04284 0,-2.23273 1.80975,-4.04248 4.043539,-4.04248 1.562453,0 2.916061,0.88794 3.588808,2.18581 0.0042,0.004 0.0088,0.005 0.01199,0.001 -0.619478,-1.62383 -2.027414,-2.8522 -3.751086,-3.20357 0.05644,-0.002 0.112183,-0.004 0.16898,-0.004 2.768953,0 5.012972,2.26695 5.012972,5.06306 0,2.79682 -2.244019,5.06413 -5.012972,5.06413 -0.0568,0 -0.112536,-0.003 -0.16898,-0.005" style="fill:#893277;fill-opacity:1;fill-rule:nonzero;stroke:none;stroke-width:0.35277778" id="path4110" inkscape:connector-curvature="0"/>
    </g>
  </g>
</svg>