<!-- Colors Used: Blue: #25277e Pink: #FFE4E6 -->

<svg xmlns="http://www.w3.org/2000/svg" version="1.1" xmlns:xlink="http://www.w3.org/1999/xlink" xmlns:svgjs="http://svgjs.com/svgjs" width="512" height="512" x="0" y="0" viewBox="0 0 128 128" style="enable-background:new 0 0 512 512" xml:space="preserve" class=""><g><path xmlns="http://www.w3.org/2000/svg" d="m94.309 87.415c-8.24 14.65-5.37 39.73-17.09 37.76-8.56-1.45-3.97-41.43-13.13-41.43s-4.56 39.98-13.12 41.43c-11.72 1.97-8.85-23.11-17.09-37.76s-16.56-35.41-8.25-49.68c6.34-10.88 21.34-11.34 31.28-6.47a11.841 11.841 0 0 0 1.22.53 15.7 15.7 0 0 0 4.99 1.11 16.247 16.247 0 0 0 8.16-1.64c9.93-4.87 24.93-4.41 31.27 6.47 8.32 14.27 0 35.02-8.24 49.68z" fill="#f5f6ff" data-original="#f5f6ff" class=""></path><path xmlns="http://www.w3.org/2000/svg" d="m90.68 52.59c-3.486-6.647-13.271-7.264-20.243-4.737a18.7 18.7 0 0 1 -12.692 0c-6.972-2.527-16.757-1.91-20.243 4.737-5.4 10.3.328 21.786 4.387 31.725 4.015 9.833 3.248 31.05 7.082 31.05 5.515 0-.458-28.592 10.808-37.808 3.04-2.486 5.582-2.486 8.621 0 11.267 9.216 5.3 37.808 10.811 37.808 3.834 0 3.067-21.217 7.083-31.05 4.058-9.939 9.788-21.426 4.386-31.725z" fill="#FFE4E6" data-original="#2ab7c6" class=""></path><g xmlns="http://www.w3.org/2000/svg" fill="#3c3559"><path d="m79.211 116.865c-3.717 0-4.024-5.125-4.489-12.882-.515-8.573-1.222-20.315-7.272-25.265-2.479-2.029-4.239-2.031-6.721 0-6.052 4.95-6.755 16.692-7.269 25.265-.465 7.757-.773 12.881-4.488 12.881-3.393 0-4.051-5.512-5.142-14.645-.726-6.083-1.549-12.977-3.33-17.338-.355-.87-.724-1.752-1.1-2.644-3.976-9.527-8.485-20.327-3.23-30.344 3.849-7.343 14.25-8.292 22.082-5.452a17.155 17.155 0 0 0 11.671 0c7.83-2.838 18.23-1.892 22.082 5.451 5.254 10.015.747 20.813-3.23 30.34-.372.893-.741 1.776-1.1 2.648-1.782 4.361-2.605 11.256-3.331 17.339-1.083 9.135-1.744 14.646-5.133 14.646zm-29.33-68.894c-4.706 0-9.117 1.63-11.051 5.315-4.6 8.771-.38 18.879 3.343 27.8q.564 1.347 1.1 2.664c1.935 4.737 2.784 11.846 3.533 18.117.47 3.94 1.084 9.089 1.891 11.2a.392.392 0 0 0 .739-.031c.58-1.805.831-6 1.025-9.224.547-9.128 1.3-21.63 8.367-27.412a8.26 8.26 0 0 1 10.518 0c7.068 5.782 7.819 18.281 8.366 27.408.193 3.216.444 7.391 1.042 9.215a.391.391 0 0 0 .735.011c.8-2.128 1.412-7.246 1.88-11.165.749-6.272 1.6-13.381 3.532-18.118.359-.878.731-1.768 1.106-2.669 3.721-8.917 7.94-19.023 3.342-27.792-2.952-5.626-11.675-6.462-18.4-4.024a20.155 20.155 0 0 1 -13.714 0 21.886 21.886 0 0 0 -7.354-1.295z" fill="#25277e" data-original="#3c3559" class=""></path><path d="m47.853 107.115a73.791 73.791 0 0 1 -.04-12.856 85.447 85.447 0 0 1 2.234-12.707 119.421 119.421 0 0 1 9.115-24 167.75 167.75 0 0 1 29.891-41.452 1.5 1.5 0 1 1 2.147 2.1 178.883 178.883 0 0 0 -16.222 19.26 160.138 160.138 0 0 0 -13.278 21.378 116.708 116.708 0 0 0 -9.08 23.374 91.359 91.359 0 0 0 -2.291 12.288c-.421 4.144-.644 8.361-.758 12.543v.014a.861.861 0 0 1 -1.717.059z" fill="#25277e" data-original="#3c3559" class=""></path><path d="m103.848 37.03c-6.63-11.374-22.1-12.519-33.229-7.055a14.915 14.915 0 0 1 -12.587.218c-.156-.07-1.409-.665-1.883-.868-10.987-4.7-25.459-3.193-31.811 7.705-8.645 14.831-.3 36.012 8.23 51.168 3.156 5.612 4.671 13.044 6.007 19.6 1.992 9.775 3.88 19.043 11.057 19.043a9.517 9.517 0 0 0 1.587-.14c5.31-.895 6.33-10.639 7.511-21.922.86-8.221 2.039-19.48 5.364-19.48s4.5 11.259 5.363 19.48c1.18 11.283 2.2 21.027 7.51 21.922 8.5 1.429 10.512-8.444 12.644-18.9 1.336-6.558 2.85-13.99 6.006-19.6 8.527-15.159 16.875-36.34 8.231-51.171zm-10.848 49.698c-3.388 6.022-4.952 13.7-6.332 20.473-2.21 10.846-3.834 17.452-9.205 16.543-3.063-.516-4.2-11.359-5.025-19.276-1.238-11.895-2.316-22.168-8.344-22.168s-7.1 10.273-8.348 22.168c-.828 7.917-1.963 18.76-5.027 19.276-5.361.9-6.994-5.7-9.2-16.544-1.38-6.774-2.944-14.451-6.332-20.472-8.146-14.474-16.187-34.583-8.258-48.187 3.518-6.034 10.219-8.67 17.112-8.67a28.149 28.149 0 0 1 11.939 2.669c.088.043 1.105.555 1.339.69a16.064 16.064 0 0 1 3.692 3.019c1.518 1.55 2.952 3.014 6.027 3.315a1.5 1.5 0 1 0 .293-2.985 5.625 5.625 0 0 1 -3.889-2.138 17.825 17.825 0 0 0 8.5-1.773c9.679-4.754 23.641-3.86 29.314 5.873 7.93 13.604-.111 33.713-8.256 48.187z" fill="#25277e" data-original="#3c3559" class=""></path></g><rect xmlns="http://www.w3.org/2000/svg" fill="#FFE4E6" height="7.444" rx="3.722" transform="matrix(.661 -.751 .751 .661 25.306 75.951)" width="19.959" x="86.707" y="6.255" data-original="#2ab7c6" class=""></rect><path xmlns="http://www.w3.org/2000/svg" d="m92.92 19.877c-.075.007-.15.011-.227.015a5.221 5.221 0 0 1 -4.083-8.742l8.448-9.234a5.221 5.221 0 1 1 7.7 7.05l-8.444 9.234a5.178 5.178 0 0 1 -3.394 1.677zm7.8-16.648a2.207 2.207 0 0 0 -1.446.712l-8.448 9.234a2.222 2.222 0 1 0 3.278 3l8.449-9.234a2.221 2.221 0 0 0 -1.833-3.712z" fill="#25277e" data-original="#3c3559" class=""></path></g></svg>