<!-- Colors Used: Blue: #25277e Pink: #FFE4E6 -->

<svg xmlns="http://www.w3.org/2000/svg" version="1.1" xmlns:xlink="http://www.w3.org/1999/xlink" xmlns:svgjs="http://svgjs.com/svgjs" width="512" height="512" x="0" y="0" viewBox="0 0 5000 5000" style="enable-background:new 0 0 512 512" xml:space="preserve" class=""><g><g xmlns="http://www.w3.org/2000/svg"><path d="m4181.722 1507.385c0-202.634-164.858-367.488-367.491-367.488-204.784 0-371.381 166.597-371.381 371.377v274.296c0 347.686-107.603 686.396-302.992 953.748-183.221 250.707-422.478 400.379-640.01 400.379s-456.79-149.672-640.014-400.379c-195.386-267.352-302.993-606.062-302.993-953.748v-274.296c0-204.78-166.601-371.377-371.381-371.377-202.633 0-367.487 164.854-367.487 367.488 0 103.746 44.176 203.162 121.206 272.758 6.745 6.092 10.595 14.756 10.595 23.846s-3.849 17.754-10.595 23.846c-77.031 69.6-121.206 169.016-121.206 272.758 0 134.021 72.888 257.286 190.307 322.038 7.604 3.743 13.549 10.407 16.308 18.679 3.526 10.583 1.288 22.092-5.593 30.517-55.699 73.453-81.621 164.439-72.998 256.329 16.253 173.063 153.258 312.277 325.767 331.014.165.014 1.038.125 1.203.147 8.958 1.108 17.031 5.938 22.253 13.306 5.218 7.361 7.101 16.58 5.185 25.402-5.549 25.57-8.363 51.934-8.363 78.363 0 202.634 164.854 367.484 367.488 367.484 42.44 0 84.029-7.163 123.607-21.292 16.675-5.959 35.053 2.716 41.046 19.391l26.943 74.898c52.429 145.005 191.357 242.465 345.686 242.465 106.803 0 208.068-46.326 277.995-127.141 1.607-1.989 3.479-3.816 5.6-5.424 5.798-4.404 12.631-6.547 19.42-6.547 9.057 0 18.033 3.817 24.359 11.17 69.952 81.313 171.537 127.941 278.699 127.941 154.296 0 293.216-97.431 345.678-242.45l26.965-74.92c5.996-16.675 24.352-25.314 41.049-19.384 39.545 14.128 81.13 21.292 123.588 21.292 202.633 0 367.484-164.85 367.484-367.484 0-26.466-2.818-52.851-8.382-78.429-3.765-17.313 7.2-34.407 24.506-38.216 1.857-.404 3.714-.646 5.549-.727 171.896-19.347 308.159-158.171 324.372-330.86 8.638-92.029-17.373-183.162-73.27-256.681-4.095-5.174-6.591-11.582-6.914-18.422-.587-12.286 5.864-23.846 16.66-29.747 118.157-64.558 191.551-188.215 191.551-322.714 0-103.35-43.846-202.406-120.337-271.969-7.163-6.011-11.479-14.972-11.479-24.62 0-9.512 4.198-18.367 11.185-24.378 76.668-69.576 120.632-168.757 120.632-272.239z" fill="#ffffff" data-original="#ffffff" class=""></path><path d="m4088.586 1828.623c72.17 69.563 113.539 168.619 113.539 271.969 0 134.498-69.248 258.156-180.73 322.714-10.186 5.901-16.273 17.46-15.719 29.747.305 6.84 2.659 13.248 6.523 18.422 52.739 73.519 77.28 164.652 69.13 256.681-15.297 172.689-143.862 311.513-306.047 330.86-1.731.081-3.483.323-5.235.727-16.329 3.809-26.674 20.903-23.122 38.216 5.249 25.578 7.908 51.963 7.908 78.429 0 202.634-202.997 395.217-394.183 395.217-40.06 0-79.296-7.163-116.606-21.292-15.754-5.93-33.073 2.708-38.73 19.383l-25.442 74.921c-49.498 145.019-248.404 245.362-393.983 245.362-101.108 0-196.954-46.627-262.954-127.941-5.969-7.354-14.438-11.171-22.983-11.171-6.406 0-22.09 9.982-23.607 11.971-65.976 80.814-74.327 99.393-173.865 115.098-267.105 42.146-407.421-98.782-456.889-243.787l-25.421-74.899c-5.654-16.675-23.089-25.595-38.727-19.391-220.165 87.35-305.749-160.839-305.749-363.473 0-26.429 2.656-52.792 7.891-78.363 1.807-8.822.031-18.04-4.892-25.402-4.927-7.369-12.544-12.198-20.996-13.306-.156-.022-.98-.132-1.136-.147-162.763-18.738-292.028-157.951-307.363-331.014-8.137-91.889 16.322-182.876 68.874-256.329 6.492-8.426 8.604-19.934 5.277-30.517-2.604-8.271-8.213-14.936-15.387-18.679-110.786-64.752-179.556-188.017-179.556-322.038 0-103.742 41.68-203.158 114.359-272.758 6.364-6.092 9.996-14.756 9.996-23.846s-3.632-17.754-9.996-23.846c-72.679-69.596-114.359-169.012-114.359-272.758 0-202.634 137.503-367.488 328.689-367.488 64.536 0 237.596 197.942 237.596 402.722v274.295c0 347.686 119.636 639.268 303.983 906.621 172.874 250.707 398.614 400.379 603.857 400.379s430.984-149.672 603.854-400.379c184.351-267.353 311.201-630.759 311.201-978.445v-274.296c0-204.78 222.128-363.425 415.344-363.425 191.186 0 369.194 197.381 369.194 400.015 0 103.482-41.479 202.663-113.816 272.24-6.592 6.011-10.553 14.866-10.553 24.378.001 9.651 4.073 18.612 10.831 24.623z" fill="#ffe4e6" data-original="#6ae9ed" class=""></path><g><g><g><path d="m1109.998 1693.017c-8.224 0-16.451-3.138-22.726-9.413-89.537-89.537-89.537-235.228 0-324.769 12.55-12.55 32.899-12.554 45.449-.004 12.554 12.55 12.554 32.899.004 45.449-64.477 64.48-64.477 169.393 0 233.87 12.55 12.55 12.55 32.899 0 45.453-6.276 6.276-14.503 9.414-22.727 9.414z" fill="#25277e" data-original="#003a66" class=""></path></g><g><path d="m2191.305 3623.768c-8.169 0-16.378-.426-24.616-1.299-61.001-6.459-115.834-36.293-154.399-83.992-11.16-13.805-9.016-34.04 4.785-45.196 13.805-11.156 34.04-9.013 45.196 4.785 27.772 34.348 67.258 55.831 111.185 60.484 43.923 4.624 87.034-8.088 121.386-35.853 13.794-11.156 34.036-9.027 45.196 4.785 11.159 13.805 9.016 34.04-4.785 45.196-41.259 33.358-91.625 51.09-143.948 51.09z" fill="#25277e" data-original="#003a66" class=""></path></g><g><path d="m1109.998 2279.567c-8.228 0-16.451-3.138-22.726-9.417-89.533-89.537-89.533-235.232 0-324.769 12.55-12.55 32.899-12.554 45.449-.004 12.554 12.55 12.554 32.899.004 45.449-64.477 64.48-64.477 169.397 0 233.877 12.55 12.551 12.55 32.899-.004 45.449-6.272 6.274-14.499 9.415-22.723 9.415z" fill="#25277e" data-original="#003a66" class=""></path></g><g><path d="m1288.089 2875.508c-3.743 0-7.545-.66-11.255-2.048-57.453-21.482-103.104-64.058-128.535-119.875-25.435-55.823-27.607-118.201-6.121-175.661 6.216-16.624 24.752-25.05 41.361-18.84 16.624 6.217 25.06 24.734 18.844 41.358-15.475 41.372-13.908 86.297 4.407 126.495 18.312 40.19 51.185 70.847 92.561 86.326 16.624 6.217 25.06 24.734 18.844 41.357-4.829 12.911-17.086 20.888-30.106 20.888z" fill="#25277e" data-original="#003a66" class=""></path></g><g><path d="m1688.673 3341.083c-56.344 0-110.036-20.396-152.454-58.179-45.802-40.807-72.976-97.005-76.51-158.245-1.024-17.717 12.514-32.91 30.231-33.937 17.761-.771 32.913 12.514 33.937 30.238 2.547 44.095 22.114 84.565 55.097 113.952 32.983 29.38 75.467 44.212 119.533 41.607 17.758-.785 32.914 12.514 33.937 30.239 1.024 17.717-12.51 32.91-30.231 33.937-4.523.256-9.044.388-13.54.388z" fill="#25277e" data-original="#003a66" class=""></path></g><g><path d="m3889.665 1693.017c-8.228 0-16.448-3.138-22.723-9.416-12.55-12.55-12.55-32.899 0-45.449 31.237-31.233 48.44-72.759 48.44-116.931s-17.204-85.702-48.44-116.935c-12.55-12.55-12.55-32.899 0-45.449s32.895-12.554 45.446-.004c43.376 43.376 67.266 101.045 67.266 162.388s-23.89 119.008-67.266 162.384c-6.276 6.274-14.503 9.412-22.723 9.412z" fill="#25277e" data-original="#003a66" class=""></path></g><g><path d="m2808.571 3623.65c-50.715 0-101.739-16.675-144.161-50.972-13.805-11.156-15.948-31.391-4.785-45.196 11.148-13.798 31.398-15.948 45.196-4.785 70.921 57.321 175.235 46.275 232.571-24.631 11.149-13.791 31.391-15.949 45.196-4.785 13.805 11.156 15.949 31.391 4.785 45.196-45.313 56.051-111.786 85.173-178.802 85.173z" fill="#25277e" data-original="#003a66" class=""></path></g><g><path d="m3889.665 2279.567c-8.228 0-16.448-3.138-22.723-9.417-12.55-12.551-12.55-32.899 0-45.449 31.237-31.233 48.44-72.763 48.44-116.935s-17.204-85.702-48.44-116.935c-12.55-12.55-12.55-32.899 0-45.449s32.895-12.554 45.446-.004c43.376 43.376 67.266 101.045 67.266 162.388s-23.89 119.012-67.266 162.388c-6.276 6.272-14.503 9.413-22.723 9.413z" fill="#25277e" data-original="#003a66" class=""></path></g><g><path d="m3711.581 2875.508c-13.027 0-25.277-7.97-30.106-20.888-6.216-16.624 2.217-35.141 18.84-41.357 41.372-15.479 74.245-46.135 92.557-86.326 18.319-40.198 19.882-85.123 4.411-126.495-6.217-16.624 2.216-35.141 18.84-41.358 16.66-6.231 35.141 2.217 41.358 18.84 21.49 57.46 19.317 119.838-6.114 175.661-25.431 55.816-71.082 98.392-128.535 119.875-3.713 1.388-7.515 2.048-11.251 2.048z" fill="#25277e" data-original="#003a66" class=""></path></g><g><path d="m3310.997 3341.083c-4.506 0-9.013-.132-13.541-.389-17.725-1.028-31.259-16.22-30.239-33.937 1.028-17.725 16.198-31.053 33.938-30.239 44.249 2.627 86.553-12.227 119.537-41.614 32.983-29.38 52.55-69.849 55.097-113.944 1.027-17.725 16.198-31.038 33.937-30.238 17.725 1.028 31.259 16.22 30.238 33.937-3.538 61.24-30.715 117.438-76.513 158.245-42.422 37.783-96.117 58.179-152.454 58.179z" fill="#25277e" data-original="#003a66" class=""></path></g></g><g><path d="m2802.883 3923.612c-113.959 0-222.531-44.873-303.044-124.212-80.51 79.332-189.085 124.212-303.029 124.212-181.309 0-344.53-114.51-406.151-284.938l-16.514-45.908c-37.178 10.217-75.599 15.383-114.616 15.383-238.076 0-431.766-193.687-431.766-431.762 0-19.508 1.31-38.994 3.905-58.246-186.993-35.368-331.631-191.933-349.664-383.983-9.053-96.44 14.286-192.043 66.036-272.872-120.711-79.526-194.347-214.67-194.347-360.695 0-110.484 42.642-216.784 118.018-296.604-75.376-79.812-118.018-186.116-118.018-296.604 0-238.076 193.69-431.766 431.766-431.766 240.222 0 435.66 195.434 435.66 435.656v274.296c0 334.152 103.207 659.401 290.607 915.825 171.166 234.2 391.025 374.023 588.121 374.023 197.1 0 416.951-139.823 588.121-374.023 187.397-256.424 290.604-581.673 290.604-915.825v-274.296c0-240.222 195.434-435.656 435.659-435.656 238.076 0 431.77 193.69 431.77 431.766 0 110.48-42.642 216.784-118.018 296.604 75.375 79.82 118.018 186.124 118.018 296.604 0 146.025-73.644 281.176-194.347 360.695 51.743 80.829 75.09 176.439 66.04 272.872-18.047 192.219-162.722 348.732-349.671 383.99 2.598 19.244 3.905 38.73 3.905 58.238 0 238.075-193.687 431.762-431.762 431.762-39.031 0-77.453-5.167-114.612-15.383l-16.528 45.937c-61.661 170.43-224.875 284.91-406.143 284.91zm-303.059-203.39c9.057 0 18.033 3.817 24.359 11.17 69.952 81.313 171.537 127.941 278.699 127.941 154.296 0 293.216-97.431 345.678-242.45l26.965-74.92c5.996-16.675 24.352-25.314 41.049-19.384 39.545 14.128 81.13 21.292 123.588 21.292 202.633 0 367.484-164.85 367.484-367.484 0-26.466-2.818-52.851-8.382-78.429-3.765-17.313 7.2-34.407 24.506-38.216 1.857-.404 3.714-.646 5.549-.727 171.896-19.347 308.159-158.171 324.372-330.86 8.638-92.029-17.373-183.162-73.27-256.681-4.095-5.174-6.591-11.582-6.914-18.422-.587-12.286 5.864-23.846 16.66-29.747 118.157-64.558 191.551-188.215 191.551-322.714 0-103.35-43.846-202.406-120.337-271.969-7.163-6.011-11.479-14.972-11.479-24.62 0-9.512 4.198-18.367 11.185-24.378 76.667-69.578 120.631-168.759 120.631-272.24 0-202.634-164.858-367.488-367.491-367.488-204.784 0-371.381 166.597-371.381 371.377v274.296c0 347.686-107.603 686.396-302.992 953.748-183.221 250.707-422.478 400.379-640.01 400.379s-456.79-149.672-640.014-400.379c-195.386-267.352-302.993-606.062-302.993-953.748v-274.296c0-204.78-166.601-371.377-371.381-371.377-202.633 0-367.487 164.854-367.487 367.488 0 103.746 44.176 203.162 121.206 272.758 6.745 6.092 10.595 14.756 10.595 23.846s-3.849 17.754-10.595 23.846c-77.031 69.6-121.206 169.016-121.206 272.758 0 134.021 72.888 257.286 190.307 322.038 7.604 3.743 13.549 10.407 16.308 18.679 3.526 10.583 1.288 22.092-5.593 30.517-55.699 73.453-81.621 164.439-72.998 256.329 16.253 173.063 153.258 312.277 325.767 331.014.165.014 1.038.125 1.203.147 8.958 1.108 17.031 5.938 22.253 13.306 5.218 7.361 7.101 16.58 5.185 25.402-5.549 25.57-8.363 51.934-8.363 78.363 0 202.634 164.854 367.484 367.488 367.484 42.44 0 84.029-7.163 123.607-21.292 16.675-5.959 35.053 2.716 41.046 19.391l26.943 74.898c52.429 145.005 191.357 242.465 345.686 242.465 106.803 0 208.068-46.326 277.995-127.141 1.607-1.989 3.479-3.816 5.6-5.424 5.799-4.403 12.632-6.546 19.421-6.546z" fill="#25277e" data-original="#003a66" class=""></path></g></g></g></g></svg>